<svg xmlns="http://www.w3.org/2000/svg" viewBox="0 0 512 512">
  <rect width="512" height="512" rx="96" fill="#0f172a"/>
  <defs>
    <radialGradient id="fg" cx="50%" cy="60%" r="55%">
      <stop offset="0%" stop-color="#f97316"/>
      <stop offset="100%" stop-color="#dc2626"/>
    </radialGradient>
  </defs>
  <path d="M256 60
    C256 60 318 138 295 210
    C328 178 325 125 312 98
    C358 158 350 250 315 302
    C323 275 316 248 299 234
    C315 272 300 326 256 368
    C212 326 197 272 213 234
    C196 248 189 275 197 302
    C162 250 154 158 200 98
    C187 125 184 178 217 210
    C194 138 256 60 256 60Z"
    fill="url(#fg)"/>
  <path d="M256 188
    C256 188 280 218 272 252
    C287 233 285 210 278 198
    C295 222 291 264 272 285
    C276 268 272 249 259 240
    C266 262 256 294 256 294
    C256 294 246 262 253 240
    C240 249 236 268 240 285
    C221 264 217 222 234 198
    C227 210 225 233 240 252
    C232 218 256 188 256 188Z"
    fill="#fde68a"/>
</svg>
